<svg width="100" height="100" viewBox="0 0 100 100" xmlns="http://www.w3.org/2000/svg"><path d="m12.061 10c-4.0991 0-7.3865 3.318-7.3865 7.4229 0 4.1048 3.2872 7.3968 7.3865 7.3968h75.227c4.0991 0 7.3864-3.2918 7.3864-7.3968 0-4.1049-3.2872-7.4229-7.3864-7.4229zm0 32.603c-4.0991 0-7.3865 3.2918-7.3865 7.3968 0 4.1048 3.2872 7.3968 7.3865 7.3968h75.227c4.0991 0 7.3864-3.2918 7.3864-7.3968 0-4.1048-3.2872-7.3968-7.3864-7.3968zm0 32.578c-4.0991 0-7.3865 3.2918-7.3865 7.3968 0 4.1048 3.2872 7.4229 7.3865 7.4229h75.227c4.0991 0 7.3864-3.318 7.3864-7.4229 0-4.1049-3.2872-7.3968-7.3864-7.3968z" /></svg>
