<svg width="100" height="100" viewBox="0 0 100 100" xmlns="http://www.w3.org/2000/svg"><path d="m12.007 0c-6.5745 0-12.007 5.4225-12.007 12.03v75.94c0 6.607 5.4319 12.03 12.007 12.03h75.986c6.5745 0 12.007-5.4225 12.007-12.03v-75.94c0-6.607-5.4319-12.03-12.007-12.03zm0 7.6166h21.084v25.487h-25.556v-21.073c0-2.5001 1.9341-4.413 4.4716-4.413zm24.064 0h27.827v25.487h-27.827zm30.807 0h21.114c2.5373 0 4.4304 1.9139 4.4304 4.413v21.073h-25.546zm-59.344 28.463h25.556v27.821h-25.556zm28.536 0h27.827v27.821h-27.827zm30.807 0h25.546v27.821h-25.546zm-59.344 30.799h25.556v25.507h-21.084c-2.5375 0-4.4716-1.9139-4.4716-4.413zm28.536 0h27.827v25.507h-27.827zm30.807 0h25.546v21.093c0 2.5001-1.8938 4.413-4.4304 4.413h-21.114z" /></svg>
