<svg width="100" height="100" viewBox="0 0 100 100" xmlns="http://www.w3.org/2000/svg"><path d="m19.695 7.0012v0.01871h-0.64479c-10.427 3e-6 -19.05 8.6007-19.05 19.001v47.96c0 10.4 8.6226 18.982 19.05 18.982h0.64479v0.0366h12.454v-0.0555c3.431-0.42716 6.0796-3.3305 6.0796-6.8724 0-3.5414-2.649-6.4446-6.0796-6.8726v-0.0555h-11.588v-0.0187h-1.5107c-2.9814 8e-5 -5.1768-2.1713-5.1768-5.1452v-47.96c0-2.9738 2.1954-5.1636 5.1768-5.1636h13.099v-0.0555c3.431-0.42724 6.0796-3.3307 6.0796-6.8724 0-3.5414-2.649-6.4446-6.0796-6.8726v-0.0555zm49.281 12.44c-3.8831 0-7.0006 3.9082-7.0006 8.7654v8.7836h-22.937c-4.3508 0-7.8665 3.5067-7.8665 7.8464v10.272c0 4.3397 3.5157 7.8281 7.8665 7.8281h22.937v9.629c0 4.857 3.1176 8.7654 7.0006 8.7654 1.8097 0 3.4569-0.86163 4.6978-2.2601l0.11064-0.11036 23.839-23.759c1.4808-1.2503 2.3766-2.9531 2.3766-4.8144 0-1.8657-0.90777-3.5449-2.395-4.796l0.01876-0.0187-23.95-23.87c-1.2406-1.3958-2.8902-2.2601-4.6978-2.2601z" /></svg>
