<svg width="100" height="100" viewBox="0 0 100 100" xmlns="http://www.w3.org/2000/svg"><path d="m7.1432 93.5h7.1428v-87h-14.286v87zm37.849-23.375 19.279 19.397 5.0071-5.0016c2.7539-2.7512 5.0071-5.3298 5.0071-5.731 0-0.40024-4.5761-5.3438-10.169-10.984l-10.169-10.254h46.052v-15.099h-46.052l10.169-10.255c5.593-5.6401 10.169-10.583 10.169-10.984 0-0.40024-2.2532-2.9802-5.0071-5.731l-5.0071-5.002-19.279 19.397c-10.603 10.668-19.279 19.724-19.279 20.125 0 0.40024 8.6755 9.4567 19.279 20.125z" /></svg>
