<svg width="100" height="100" viewBox="0 0 100 100" xmlns="http://www.w3.org/2000/svg"><path d="m7.5767 94.467-2.4719-2.4649 7.9528-7.9213c4.3741-4.3567 7.9528-7.9865 7.9528-8.0661 0-0.0788-0.2273-0.68147-0.50511-1.3374-1.141-2.6942-1.9043-5.8802-2.2061-9.2074-0.12842-1.4161-0.22261-1.9134-0.36236-1.9134-0.10385 0-3.9213 0.63187-8.4831 1.4042-4.5619 0.77232-8.3176 1.381-8.3462 1.3527-0.0765-0.07669-1.1611-6.8922-1.1054-6.9477 0.045515-0.04475 17.841-2.9914 18.069-2.9914 0.06112 0 0.11112-3.4779 0.11112-7.7289 0-7.2416-0.01563-7.7331-0.24744-7.7958-14.048-3.7929-17.232-4.6642-17.31-4.7367-0.070944-0.06598 1.3792-6.5684 1.503-6.739 0.012894-0.01777 3.8041 1.012 8.425 2.2884 4.6208 1.2765 8.4824 2.3207 8.5811 2.3207s0.17954-0.10633 0.17954-0.23687c0-0.50907 1.1995-3.7275 2.0372-5.4665 1.5348-3.1857 3.2707-5.6973 5.6873-8.2286 2.0984-2.198 5.0454-4.455 7.7233-5.9155l1.0958-0.5976v-10.537h7.07v7.841l1.308-0.25049c3.7686-0.72167 7.7554-0.72167 11.524 0l1.308 0.25049v-7.8412h7.07v10.52l1.6614 0.93705c3.1517 1.7775 6.6843 4.747 8.9021 7.4835 2.5723 3.1737 4.6565 7.0823 5.8455 10.962 0.26434 0.86235 0.32759 0.95536 0.60366 0.88618 0.16879-0.04265 3.9967-1.0592 8.5048-2.2592 4.5079-1.2001 8.2116-2.1666 8.2306-2.1479 0.08545 0.0851 1.7856 6.7147 1.7324 6.7555-0.04282 0.03194-14.829 4.002-17.53 4.7055-0.2686 0.07019-0.27522 0.26007-0.27522 7.8006 0 4.251 0.05127 7.7289 0.11329 7.7289 0.28676 0 18.015 2.9392 18.072 2.9964 0.05991 0.05967-1.0436 6.8761-1.1266 6.9588-0.02016 0.02008-3.7554-0.59503-8.3003-1.3672-4.545-0.77211-8.3641-1.4042-8.487-1.4048-0.18376-9e-4 -0.2528 0.32775-0.39061 1.8649-0.29018 3.2381-1.2191 6.971-2.4091 9.6817l-0.402 0.91536 16.008 15.984-5.0187 4.9983-14.798-14.736-0.8197 0.99792c-1.1116 1.3533-3.4881 3.5919-5.0699 4.7761-4.5467 3.4036-10.003 5.5696-15.687 6.2276-1.9061 0.22069-6.9775 0.0936-8.6611-0.21622-5.3791-0.99143-9.9195-2.9375-14.026-6.0113-1.5819-1.1842-3.9583-3.4229-5.0699-4.7761l-0.8197-0.99792-7.364 7.3332c-4.0503 4.0333-7.3963 7.3332-7.4358 7.3332-0.03954 0-1.1841-1.1092-2.5437-2.4649zm38.884-29.995v-22.743h-21.224l0.05684 12.076c0.06087 12.938 0.03111 12.371 0.80517 15.385 1.1504 4.4803 3.8587 8.8601 7.4243 12.007 2.5028 2.2089 5.4638 3.919 8.5878 4.9599 1.3071 0.43542 3.6148 1.0154 4.1734 1.0484 0.14094 8e-3 0.17743-4.6266 0.17743-22.733zm8.3622 22.521c4.0572-0.76402 8.3833-2.917 11.646-5.7962 3.5657-3.1467 6.2739-7.5268 7.4243-12.007 0.77396-3.0142 0.74428-2.447 0.80517-15.385l0.05761-12.076h-21.224v22.743c0 12.509 0.02573 22.743 0.0555 22.743 0.02996 0 0.58699-0.10002 1.2373-0.22262zm18.483-53.539c-2.1192-5.9798-6.8003-11.185-12.521-13.922-9.3593-4.4789-20.489-2.7101-27.945 4.4414-2.7029 2.5921-4.938 6.0349-6.1558 9.4813l-0.43541 1.2322h47.495z" /></svg>
